<?xml version="1.0" encoding="utf-8"?>
<svg xmlns="http://www.w3.org/2000/svg" style="margin: auto; background: rgba(0, 0, 0, 0) none repeat scroll 0% 0%; display: block; shape-rendering: auto;" width="276" height="40" preserveAspectRatio="xMidYMid">
<style type="text/css">
  text {
    text-anchor: middle; font-size: 36px; opacity: 0;
  }
</style>
<g style="transform-origin: 138px 20px 0px; transform: scale(1.5);">
<g transform="translate(138,20)">
  <g transform="translate(0,0)"><g class="path" style="transform: matrix(1, 0, 0, 1, 0, 14.925); opacity: 0.05; transform-origin: -81.5283px -1.21001px 0px; animation: 0.490196s linear 0s 1 normal forwards running float-btt-in-d306c29f-18cb-426a-8c0e-2679ce6f9c63;"><path d="M2.11 0L2.11-16.37L5.88-16.37L5.88-16.37Q9-16.37 10.50-15.26L10.50-15.26L10.50-15.26Q12-14.16 12-11.54L12-11.54L12-11.54Q12-10.10 11.45-9.14L11.45-9.14L11.45-9.14Q10.90-8.18 10.07-7.60L10.07-7.60L10.07-7.60Q9.24-7.01 8.28-6.76L8.28-6.76L8.28-6.76Q7.32-6.50 6.50-6.50L6.50-6.50L4.13-6.50L4.13 0L2.11 0zM4.13-14.57L4.13-8.30L6.34-8.30L6.34-8.30Q7.15-8.30 7.81-8.46L7.81-8.46L7.81-8.46Q8.47-8.62 8.95-8.99L8.95-8.99L8.95-8.99Q9.43-9.36 9.70-10.00L9.70-10.00L9.70-10.00Q9.96-10.63 9.96-11.59L9.96-11.59L9.96-11.59Q9.96-12.55 9.68-13.14L9.68-13.14L9.68-13.14Q9.41-13.73 8.87-14.04L8.87-14.04L8.87-14.04Q8.33-14.35 7.51-14.46L7.51-14.46L7.51-14.46Q6.70-14.57 5.62-14.57L5.62-14.57L4.13-14.57" fill="#ffffff" stroke="none" stroke-width="none" transform="translate(-88.58333587646484,6.974987888336182)" style="fill: rgb(255, 255, 255);"></path></g><g class="path" style="transform: matrix(1, 0, 0, 1, 0, 14.925); opacity: 0.05; transform-origin: -70.9583px 0.817488px 0px; animation: 0.490196s linear 0.0202206s 1 normal forwards running float-btt-in-d306c29f-18cb-426a-8c0e-2679ce6f9c63;"><path d="M14.71 0L14.71-10.13L14.71-10.13Q14.71-10.68 14.59-11.86L14.59-11.86L16.37-12.10L16.56-10.34L16.58-10.34L16.58-10.34Q17.02-10.90 17.42-11.30L17.42-11.30L17.42-11.30Q17.83-11.71 18.28-12.01L18.28-12.01L18.28-12.01Q18.72-12.31 19.13-12.31L19.13-12.31L19.13-12.31Q19.68-12.34 20.66-12.19L20.66-12.19L20.23-10.34L20.23-10.34Q19.44-10.49 19.13-10.46L19.13-10.46L19.13-10.46Q18.72-10.46 18.26-10.08L18.26-10.08L18.26-10.08Q17.81-9.70 17.47-9.26L17.47-9.26L17.47-9.26Q17.04-8.74 16.63-8.06L16.63-8.06L16.63 0L14.71 0" fill="#ffffff" stroke="none" stroke-width="none" transform="translate(-88.58333587646484,6.974987888336182)" style="fill: rgb(255, 255, 255);"></path></g><g class="path" style="transform: matrix(1, 0, 0, 1, 0, 14.925); opacity: 0.05; transform-origin: -61.0083px 0.974988px 0px; animation: 0.490196s linear 0.0404412s 1 normal forwards running float-btt-in-d306c29f-18cb-426a-8c0e-2679ce6f9c63;"><path d="M23.78-5.98L23.78-5.98L23.78-5.98Q23.78-3.65 24.83-2.51L24.83-2.51L24.83-2.51Q25.87-1.37 27.65-1.37L27.65-1.37L27.65-1.37Q29.40-1.37 30.38-2.50L30.38-2.50L30.38-2.50Q31.37-3.62 31.37-5.88L31.37-5.88L31.37-5.88Q31.37-8.28 30.32-9.46L30.32-9.46L30.32-9.46Q29.28-10.63 27.48-10.63L27.48-10.63L27.48-10.63Q25.68-10.63 24.73-9.47L24.73-9.47L24.73-9.47Q23.78-8.30 23.78-5.98zM21.74-6L21.74-6L21.74-6Q21.74-7.82 22.32-9.04L22.32-9.04L22.32-9.04Q22.90-10.25 23.78-10.98L23.78-10.98L23.78-10.98Q24.67-11.71 25.69-12.01L25.69-12.01L25.69-12.01Q26.71-12.31 27.62-12.31L27.62-12.31L27.62-12.31Q28.49-12.31 29.51-12.04L29.51-12.04L29.51-12.04Q30.53-11.76 31.39-11.05L31.39-11.05L31.39-11.05Q32.26-10.34 32.83-9.16L32.83-9.16L32.83-9.16Q33.41-7.97 33.41-6.14L33.41-6.14L33.41-6.14Q33.41-4.25 32.82-3L32.82-3L32.82-3Q32.23-1.75 31.34-1.02L31.34-1.02L31.34-1.02Q30.46-0.29 29.42 0.01L29.42 0.01L29.42 0.01Q28.39 0.31 27.50 0.31L27.50 0.31L27.50 0.31Q26.59 0.31 25.58 0.02L25.58 0.02L25.58 0.02Q24.58-0.26 23.72-0.97L23.72-0.97L23.72-0.97Q22.87-1.68 22.31-2.90L22.31-2.90L22.31-2.90Q21.74-4.13 21.74-6" fill="#ffffff" stroke="none" stroke-width="none" transform="translate(-88.58333587646484,6.974987888336182)" style="fill: rgb(255, 255, 255);"></path></g><g class="path" style="transform: matrix(1, 0, 0, 1, 0, 14.925); opacity: 0.05; transform-origin: -49.0433px -2.12001px 0px; animation: 0.490196s linear 0.0606618s 1 normal forwards running float-btt-in-d306c29f-18cb-426a-8c0e-2679ce6f9c63;"><path d="M37.08 0L37.08-10.51L34.85-10.51L34.85-12.07L37.08-12.07L37.08-12.07Q37.08-13.75 37.31-14.92L37.31-14.92L37.31-14.92Q37.54-16.08 38.04-16.81L38.04-16.81L38.04-16.81Q38.54-17.54 39.34-17.87L39.34-17.87L39.34-17.87Q40.13-18.19 41.26-18.19L41.26-18.19L41.26-18.19Q42.17-18.19 42.96-17.89L42.96-17.89L42.96-17.89Q43.75-17.59 44.23-17.16L44.23-17.16L43.39-15.72L43.39-15.72Q42.91-16.08 42.40-16.30L42.40-16.30L42.40-16.30Q41.88-16.51 41.28-16.51L41.28-16.51L41.28-16.51Q40.49-16.51 40.03-16.16L40.03-16.16L40.03-16.16Q39.58-15.82 39.35-15.22L39.35-15.22L39.35-15.22Q39.12-14.62 39.06-13.81L39.06-13.81L39.06-13.81Q39-13.01 39-12.07L39-12.07L42-12.07L42-10.51L39-10.51L39 0L37.08 0" fill="#ffffff" stroke="none" stroke-width="none" transform="translate(-88.58333587646484,6.974987888336182)" style="fill: rgb(255, 255, 255);"></path></g><g class="path" style="transform: matrix(1, 0, 0, 1, 0, 14.925); opacity: 0.05; transform-origin: -43.8833px 5.55999px 0px; animation: 0.490196s linear 0.0808824s 1 normal forwards running float-btt-in-d306c29f-18cb-426a-8c0e-2679ce6f9c63;"><path d="M43.25-1.42L43.25-1.42L43.25-1.42Q43.25-1.99 43.66-2.41L43.66-2.41L43.66-2.41Q44.06-2.83 44.66-2.83L44.66-2.83L44.66-2.83Q45.29-2.83 45.72-2.41L45.72-2.41L45.72-2.41Q46.15-1.99 46.15-1.42L46.15-1.42L46.15-1.42Q46.15-0.82 45.72-0.41L45.72-0.41L45.72-0.41Q45.29 0 44.66 0L44.66 0L44.66 0Q44.06 0 43.66-0.41L43.66-0.41L43.66-0.41Q43.25-0.82 43.25-1.42" fill="#ffffff" stroke="none" stroke-width="none" transform="translate(-88.58333587646484,6.974987888336182)" style="fill: rgb(255, 255, 255);"></path></g><g class="path" style="transform: matrix(1, 0, 0, 1, 0, 14.925); opacity: 0.05; transform-origin: -28.6783px -1.21001px 0px; animation: 0.490196s linear 0.101103s 1 normal forwards running float-btt-in-d306c29f-18cb-426a-8c0e-2679ce6f9c63;"><path d="M54.96 0L54.96-16.37L58.73-16.37L58.73-16.37Q61.85-16.37 63.35-15.26L63.35-15.26L63.35-15.26Q64.85-14.16 64.85-11.54L64.85-11.54L64.85-11.54Q64.85-10.10 64.30-9.14L64.30-9.14L64.30-9.14Q63.74-8.18 62.92-7.60L62.92-7.60L62.92-7.60Q62.09-7.01 61.13-6.76L61.13-6.76L61.13-6.76Q60.17-6.50 59.35-6.50L59.35-6.50L56.98-6.50L56.98 0L54.96 0zM56.98-14.57L56.98-8.30L59.18-8.30L59.18-8.30Q60.00-8.30 60.66-8.46L60.66-8.46L60.66-8.46Q61.32-8.62 61.80-8.99L61.80-8.99L61.80-8.99Q62.28-9.36 62.54-10.00L62.54-10.00L62.54-10.00Q62.81-10.63 62.81-11.59L62.81-11.59L62.81-11.59Q62.81-12.55 62.53-13.14L62.53-13.14L62.53-13.14Q62.26-13.73 61.72-14.04L61.72-14.04L61.72-14.04Q61.18-14.35 60.36-14.46L60.36-14.46L60.36-14.46Q59.54-14.57 58.46-14.57L58.46-14.57L56.98-14.57" fill="#ffffff" stroke="none" stroke-width="none" transform="translate(-88.58333587646484,6.974987888336182)" style="fill: rgb(255, 255, 255);"></path></g><g class="path" style="transform: matrix(1, 0, 0, 1, 0, 14.925); opacity: 0.05; transform-origin: -16.9333px 0.974988px 0px; animation: 0.490196s linear 0.121324s 1 normal forwards running float-btt-in-d306c29f-18cb-426a-8c0e-2679ce6f9c63;"><path d="M75.79-1.90L76.15-0.29L76.15-0.29Q75.60-0.12 75.01 0L75.01 0L75.01 0Q74.42 0.12 73.72 0.22L73.72 0.22L73.72 0.22Q73.01 0.31 72.24 0.31L72.24 0.31L72.24 0.31Q71.04 0.31 70.01-0.02L70.01-0.02L70.01-0.02Q68.98-0.36 68.21-1.10L68.21-1.10L68.21-1.10Q67.44-1.85 67.00-3.04L67.00-3.04L67.00-3.04Q66.55-4.22 66.55-5.95L66.55-5.95L66.55-5.95Q66.55-7.51 66.98-8.70L66.98-8.70L66.98-8.70Q67.42-9.89 68.17-10.69L68.17-10.69L68.17-10.69Q68.93-11.50 69.95-11.90L69.95-11.90L69.95-11.90Q70.97-12.31 72.17-12.31L72.17-12.31L72.17-12.31Q73.34-12.31 74.21-11.86L74.21-11.86L74.21-11.86Q75.07-11.40 75.64-10.62L75.64-10.62L75.64-10.62Q76.20-9.84 76.48-8.80L76.48-8.80L76.48-8.80Q76.75-7.75 76.75-6.60L76.75-6.60L76.39-5.54L68.64-5.54L68.64-5.54Q68.64-4.80 68.83-4.06L68.83-4.06L68.83-4.06Q69.02-3.31 69.49-2.71L69.49-2.71L69.49-2.71Q69.96-2.11 70.72-1.74L70.72-1.74L70.72-1.74Q71.47-1.37 72.60-1.37L72.60-1.37L72.60-1.37Q73.32-1.37 73.92-1.45L73.92-1.45L73.92-1.45Q74.52-1.54 74.96-1.64L74.96-1.64L74.96-1.64Q75.41-1.75 75.79-1.90L75.79-1.90zM68.71-7.08L74.76-7.08L74.76-7.08Q74.76-7.25 74.69-7.82L74.69-7.82L74.69-7.82Q74.62-8.40 74.35-9.02L74.35-9.02L74.35-9.02Q74.09-9.65 73.54-10.14L73.54-10.14L73.54-10.14Q72.98-10.63 72.07-10.63L72.07-10.63L72.07-10.63Q71.06-10.63 70.42-10.21L70.42-10.21L70.42-10.21Q69.77-9.79 69.38-9.22L69.38-9.22L69.38-9.22Q69.00-8.64 68.86-8.04L68.86-8.04L68.86-8.04Q68.71-7.44 68.71-7.08L68.71-7.08" fill="#ffffff" stroke="none" stroke-width="none" transform="translate(-88.58333587646484,6.974987888336182)" style="fill: rgb(255, 255, 255);"></path></g><g class="path" style="transform: matrix(1, 0, 0, 1, 0, 14.925); opacity: 0.05; transform-origin: -4.73833px -1.96501px 0px; animation: 0.490196s linear 0.141544s 1 normal forwards running float-btt-in-d306c29f-18cb-426a-8c0e-2679ce6f9c63;"><path d="M86.90-2.64L86.90-10.27L86.90-10.27Q86.04-10.51 85.56-10.57L85.56-10.57L85.56-10.57Q85.08-10.63 84.58-10.63L84.58-10.63L84.58-10.63Q83.57-10.63 82.85-10.27L82.85-10.27L82.85-10.27Q82.13-9.91 81.66-9.28L81.66-9.28L81.66-9.28Q81.19-8.64 80.98-7.81L80.98-7.81L80.98-7.81Q80.76-6.98 80.76-6.05L80.76-6.05L80.76-6.05Q80.76-5.21 80.94-4.37L80.94-4.37L80.94-4.37Q81.12-3.53 81.50-2.86L81.50-2.86L81.50-2.86Q81.89-2.18 82.44-1.78L82.44-1.78L82.44-1.78Q82.99-1.37 83.76-1.37L83.76-1.37L83.76-1.37Q84.29-1.37 84.85-1.56L84.85-1.56L84.85-1.56Q85.42-1.75 85.90-2.00L85.90-2.00L85.90-2.00Q86.38-2.26 86.90-2.64L86.90-2.64zM87.12 0.19L86.93-0.96L86.93-0.96Q86.38-0.58 85.86-0.32L85.86-0.32L85.86-0.32Q85.34-0.07 84.73 0.12L84.73 0.12L84.73 0.12Q84.12 0.31 83.54 0.31L83.54 0.31L83.54 0.31Q81.29 0.31 80.00-1.28L80.00-1.28L80.00-1.28Q78.72-2.88 78.72-5.95L78.72-5.95L78.72-5.95Q78.72-7.78 79.31-9L79.31-9L79.31-9Q79.90-10.22 80.78-10.96L80.78-10.96L80.78-10.96Q81.67-11.69 82.69-12L82.69-12L82.69-12Q83.71-12.31 84.58-12.31L84.58-12.31L84.58-12.31Q85.01-12.31 85.49-12.25L85.49-12.25L85.49-12.25Q85.97-12.19 86.90-11.95L86.90-11.95L86.90-17.98L88.82-18.19L88.82-2.18L88.82-2.18Q88.82-1.85 88.84-1.48L88.84-1.48L88.84-1.48Q88.85-1.10 88.88-0.74L88.88-0.74L88.88-0.74Q88.92-0.38 88.97 0L88.97 0L87.12 0.19" fill="#ffffff" stroke="none" stroke-width="none" transform="translate(-88.58333587646484,6.974987888336182)" style="fill: rgb(255, 255, 255);"></path></g><g class="path" style="transform: matrix(1, 0, 0, 1, 0, 14.925); opacity: 0.05; transform-origin: 6.66166px 0.817488px 0px; animation: 0.490196s linear 0.161765s 1 normal forwards running float-btt-in-d306c29f-18cb-426a-8c0e-2679ce6f9c63;"><path d="M92.33 0L92.33-10.13L92.33-10.13Q92.33-10.68 92.21-11.86L92.21-11.86L93.98-12.10L94.18-10.34L94.20-10.34L94.20-10.34Q94.63-10.90 95.04-11.30L95.04-11.30L95.04-11.30Q95.45-11.71 95.89-12.01L95.89-12.01L95.89-12.01Q96.34-12.31 96.74-12.31L96.74-12.31L96.74-12.31Q97.30-12.34 98.28-12.19L98.28-12.19L97.85-10.34L97.85-10.34Q97.06-10.49 96.74-10.46L96.74-10.46L96.74-10.46Q96.34-10.46 95.88-10.08L95.88-10.08L95.88-10.08Q95.42-9.70 95.09-9.26L95.09-9.26L95.09-9.26Q94.66-8.74 94.25-8.06L94.25-8.06L94.25 0L92.33 0" fill="#ffffff" stroke="none" stroke-width="none" transform="translate(-88.58333587646484,6.974987888336182)" style="fill: rgb(255, 255, 255);"></path></g><g class="path" style="transform: matrix(1, 0, 0, 1, 0, 14.925); opacity: 0.05; transform-origin: 16.6067px 0.974988px 0px; animation: 0.490196s linear 0.181985s 1 normal forwards running float-btt-in-d306c29f-18cb-426a-8c0e-2679ce6f9c63;"><path d="M101.40-5.98L101.40-5.98L101.40-5.98Q101.40-3.65 102.44-2.51L102.44-2.51L102.44-2.51Q103.49-1.37 105.26-1.37L105.26-1.37L105.26-1.37Q107.02-1.37 108.00-2.50L108.00-2.50L108.00-2.50Q108.98-3.62 108.98-5.88L108.98-5.88L108.98-5.88Q108.98-8.28 107.94-9.46L107.94-9.46L107.94-9.46Q106.90-10.63 105.10-10.63L105.10-10.63L105.10-10.63Q103.30-10.63 102.35-9.47L102.35-9.47L102.35-9.47Q101.40-8.30 101.40-5.98zM99.36-6L99.36-6L99.36-6Q99.36-7.82 99.94-9.04L99.94-9.04L99.94-9.04Q100.51-10.25 101.40-10.98L101.40-10.98L101.40-10.98Q102.29-11.71 103.31-12.01L103.31-12.01L103.31-12.01Q104.33-12.31 105.24-12.31L105.24-12.31L105.24-12.31Q106.10-12.31 107.12-12.04L107.12-12.04L107.12-12.04Q108.14-11.76 109.01-11.05L109.01-11.05L109.01-11.05Q109.87-10.34 110.45-9.16L110.45-9.16L110.45-9.16Q111.02-7.97 111.02-6.14L111.02-6.14L111.02-6.14Q111.02-4.25 110.44-3L110.44-3L110.44-3Q109.85-1.75 108.96-1.02L108.96-1.02L108.96-1.02Q108.07-0.29 107.04 0.01L107.04 0.01L107.04 0.01Q106.01 0.31 105.12 0.31L105.12 0.31L105.12 0.31Q104.21 0.31 103.20 0.02L103.20 0.02L103.20 0.02Q102.19-0.26 101.34-0.97L101.34-0.97L101.34-0.97Q100.49-1.68 99.92-2.90L99.92-2.90L99.92-2.90Q99.36-4.13 99.36-6" fill="#ffffff" stroke="none" stroke-width="none" transform="translate(-88.58333587646484,6.974987888336182)" style="fill: rgb(255, 255, 255);"></path></g><g class="path" style="transform: matrix(1, 0, 0, 1, 0, 14.925); opacity: 0.05; transform-origin: 37.0467px -1.21001px 0px; animation: 0.490196s linear 0.202206s 1 normal forwards running float-btt-in-d306c29f-18cb-426a-8c0e-2679ce6f9c63;"><path d="M119.69 0L119.69-16.37L123.72-16.37L123.72-16.37Q125.04-16.37 126.13-16.14L126.13-16.14L126.13-16.14Q127.22-15.91 127.99-15.37L127.99-15.37L127.99-15.37Q128.76-14.83 129.17-13.94L129.17-13.94L129.17-13.94Q129.58-13.06 129.58-11.71L129.58-11.71L129.58-11.71Q129.55-10.22 129.07-9.30L129.07-9.30L129.07-9.30Q128.59-8.38 127.90-7.81L127.90-7.81L127.90-7.81Q127.20-7.25 126.29-6.98L126.29-6.98L126.29-6.94L126.29-6.94Q126.38-6.84 126.59-6.59L126.59-6.59L126.59-6.59Q126.79-6.34 126.94-6.14L126.94-6.14L131.57 0L129.19 0L124.44-6.50L121.70-6.50L121.70 0L119.69 0zM127.54-11.38L127.54-11.38L127.54-11.38Q127.54-12.38 127.28-13.02L127.28-13.02L127.28-13.02Q127.03-13.66 126.54-13.99L126.54-13.99L126.54-13.99Q126.05-14.33 125.33-14.45L125.33-14.45L125.33-14.45Q124.61-14.57 123.70-14.57L123.70-14.57L121.70-14.57L121.70-8.30L124.08-8.30L124.08-8.30Q125.02-8.30 125.66-8.54L125.66-8.54L125.66-8.54Q126.31-8.78 126.72-9.20L126.72-9.20L126.72-9.20Q127.13-9.62 127.32-10.18L127.32-10.18L127.32-10.18Q127.51-10.73 127.54-11.38" fill="#ffffff" stroke="none" stroke-width="none" transform="translate(-88.58333587646484,6.974987888336182)" style="fill: rgb(255, 255, 255);"></path></g><g class="path" style="transform: matrix(1, 0, 0, 1, 0, 14.925); opacity: 0.05; transform-origin: 48.5017px 0.974988px 0px; animation: 0.490196s linear 0.222426s 1 normal forwards running float-btt-in-d306c29f-18cb-426a-8c0e-2679ce6f9c63;"><path d="M139.92-2.81L139.92-5.54L139.92-5.54Q139.44-5.52 139.01-5.50L139.01-5.50L139.01-5.50Q138.58-5.47 138.16-5.44L138.16-5.44L138.16-5.44Q137.74-5.40 137.40-5.35L137.40-5.35L137.40-5.35Q135.67-5.14 134.95-4.60L134.95-4.60L134.95-4.60Q134.23-4.06 134.23-3.05L134.23-3.05L134.23-3.05Q134.23-2.21 134.75-1.79L134.75-1.79L134.75-1.79Q135.26-1.37 136.10-1.37L136.10-1.37L136.10-1.37Q137.26-1.37 138.16-1.76L138.16-1.76L138.16-1.76Q139.06-2.16 139.92-2.81L139.92-2.81zM140.14 0.19L139.90-1.13L139.90-1.13Q138.77-0.48 137.80-0.08L137.80-0.08L137.80-0.08Q136.82 0.31 135.70 0.31L135.70 0.31L135.70 0.31Q134.09 0.31 133.14-0.47L133.14-0.47L133.14-0.47Q132.19-1.25 132.19-3.05L132.19-3.05L132.19-3.05Q132.19-3.98 132.67-4.68L132.67-4.68L132.67-4.68Q133.15-5.38 133.93-5.84L133.93-5.84L133.93-5.84Q134.71-6.31 135.70-6.58L135.70-6.58L135.70-6.58Q136.68-6.84 137.71-6.91L137.71-6.91L137.71-6.91Q138.14-6.96 138.84-7.00L138.84-7.00L138.84-7.00Q139.54-7.03 139.92-7.06L139.92-7.06L139.92-7.06Q139.92-7.90 139.87-8.56L139.87-8.56L139.87-8.56Q139.82-9.22 139.58-9.68L139.58-9.68L139.58-9.68Q139.34-10.15 138.88-10.39L138.88-10.39L138.88-10.39Q138.41-10.63 137.54-10.63L137.54-10.63L137.54-10.63Q136.85-10.63 136.20-10.55L136.20-10.55L136.20-10.55Q135.55-10.46 135.05-10.37L135.05-10.37L135.05-10.37Q134.45-10.25 133.94-10.10L133.94-10.10L133.56-11.76L133.56-11.76Q134.16-11.90 134.86-12.02L134.86-12.02L134.86-12.02Q135.46-12.14 136.25-12.23L136.25-12.23L136.25-12.23Q137.04-12.31 137.95-12.31L137.95-12.31L137.95-12.31Q139.18-12.31 139.93-11.95L139.93-11.95L139.93-11.95Q140.69-11.59 141.11-10.98L141.11-10.98L141.11-10.98Q141.53-10.37 141.68-9.59L141.68-9.59L141.68-9.59Q141.84-8.81 141.84-7.94L141.84-7.94L141.84-2.18L141.84-2.18Q141.84-1.85 141.85-1.48L141.85-1.48L141.85-1.48Q141.86-1.10 141.90-0.74L141.90-0.74L141.90-0.74Q141.94-0.38 141.98 0L141.98 0L140.14 0.19" fill="#ffffff" stroke="none" stroke-width="none" transform="translate(-88.58333587646484,6.974987888336182)" style="fill: rgb(255, 255, 255);"></path></g><g class="path" style="transform: matrix(1, 0, 0, 1, 0, 14.925); opacity: 0.05; transform-origin: 60.0367px -2.12001px 0px; animation: 0.490196s linear 0.242647s 1 normal forwards running float-btt-in-d306c29f-18cb-426a-8c0e-2679ce6f9c63;"><path d="M146.16 0L146.16-10.51L143.93-10.51L143.93-12.07L146.16-12.07L146.16-12.07Q146.16-13.75 146.39-14.92L146.39-14.92L146.39-14.92Q146.62-16.08 147.12-16.81L147.12-16.81L147.12-16.81Q147.62-17.54 148.42-17.87L148.42-17.87L148.42-17.87Q149.21-18.19 150.34-18.19L150.34-18.19L150.34-18.19Q151.25-18.19 152.04-17.89L152.04-17.89L152.04-17.89Q152.83-17.59 153.31-17.16L153.31-17.16L152.47-15.72L152.47-15.72Q151.99-16.08 151.48-16.30L151.48-16.30L151.48-16.30Q150.96-16.51 150.36-16.51L150.36-16.51L150.36-16.51Q149.57-16.51 149.11-16.16L149.11-16.16L149.11-16.16Q148.66-15.82 148.43-15.22L148.43-15.22L148.43-15.22Q148.20-14.62 148.14-13.81L148.14-13.81L148.14-13.81Q148.08-13.01 148.08-12.07L148.08-12.07L151.08-12.07L151.08-10.51L148.08-10.51L148.08 0L146.16 0" fill="#ffffff" stroke="none" stroke-width="none" transform="translate(-88.58333587646484,6.974987888336182)" style="fill: rgb(255, 255, 255);"></path></g><g class="path" style="transform: matrix(1, 0, 0, 1, 0, 14.925); opacity: 0.05; transform-origin: 68.4517px 0.974988px 0px; animation: 0.490196s linear 0.262868s 1 normal forwards running float-btt-in-d306c29f-18cb-426a-8c0e-2679ce6f9c63;"><path d="M159.86-2.81L159.86-5.54L159.86-5.54Q159.38-5.52 158.95-5.50L158.95-5.50L158.95-5.50Q158.52-5.47 158.10-5.44L158.10-5.44L158.10-5.44Q157.68-5.40 157.34-5.35L157.34-5.35L157.34-5.35Q155.62-5.14 154.90-4.60L154.90-4.60L154.90-4.60Q154.18-4.06 154.18-3.05L154.18-3.05L154.18-3.05Q154.18-2.21 154.69-1.79L154.69-1.79L154.69-1.79Q155.21-1.37 156.05-1.37L156.05-1.37L156.05-1.37Q157.20-1.37 158.10-1.76L158.10-1.76L158.10-1.76Q159-2.16 159.86-2.81L159.86-2.81zM160.08 0.19L159.84-1.13L159.84-1.13Q158.71-0.48 157.74-0.08L157.74-0.08L157.74-0.08Q156.77 0.31 155.64 0.31L155.64 0.31L155.64 0.31Q154.03 0.31 153.08-0.47L153.08-0.47L153.08-0.47Q152.14-1.25 152.14-3.05L152.14-3.05L152.14-3.05Q152.14-3.98 152.62-4.68L152.62-4.68L152.62-4.68Q153.10-5.38 153.88-5.84L153.88-5.84L153.88-5.84Q154.66-6.31 155.64-6.58L155.64-6.58L155.64-6.58Q156.62-6.84 157.66-6.91L157.66-6.91L157.66-6.91Q158.09-6.96 158.78-7.00L158.78-7.00L158.78-7.00Q159.48-7.03 159.86-7.06L159.86-7.06L159.86-7.06Q159.86-7.90 159.82-8.56L159.82-8.56L159.82-8.56Q159.77-9.22 159.53-9.68L159.53-9.68L159.53-9.68Q159.29-10.15 158.82-10.39L158.82-10.39L158.82-10.39Q158.35-10.63 157.49-10.63L157.49-10.63L157.49-10.63Q156.79-10.63 156.14-10.55L156.14-10.55L156.14-10.55Q155.50-10.46 154.99-10.37L154.99-10.37L154.99-10.37Q154.39-10.25 153.89-10.10L153.89-10.10L153.50-11.76L153.50-11.76Q154.10-11.90 154.80-12.02L154.80-12.02L154.80-12.02Q155.40-12.14 156.19-12.23L156.19-12.23L156.19-12.23Q156.98-12.31 157.90-12.31L157.90-12.31L157.90-12.31Q159.12-12.31 159.88-11.95L159.88-11.95L159.88-11.95Q160.63-11.59 161.05-10.98L161.05-10.98L161.05-10.98Q161.47-10.37 161.63-9.59L161.63-9.59L161.63-9.59Q161.78-8.81 161.78-7.94L161.78-7.94L161.78-2.18L161.78-2.18Q161.78-1.85 161.80-1.48L161.80-1.48L161.80-1.48Q161.81-1.10 161.84-0.74L161.84-0.74L161.84-0.74Q161.88-0.38 161.93 0L161.93 0L160.08 0.19" fill="#ffffff" stroke="none" stroke-width="none" transform="translate(-88.58333587646484,6.974987888336182)" style="fill: rgb(255, 255, 255);"></path></g><g class="path" style="transform: matrix(1, 0, 0, 1, 0, 14.925); opacity: 0.05; transform-origin: 81.0167px 0.974988px 0px; animation: 0.490196s linear 0.283088s 1 normal forwards running float-btt-in-d306c29f-18cb-426a-8c0e-2679ce6f9c63;"><path d="M173.74-1.90L174.10-0.29L174.10-0.29Q173.54-0.12 172.96 0L172.96 0L172.96 0Q172.37 0.12 171.66 0.22L171.66 0.22L171.66 0.22Q170.95 0.31 170.18 0.31L170.18 0.31L170.18 0.31Q168.98 0.31 167.95-0.02L167.95-0.02L167.95-0.02Q166.92-0.36 166.15-1.10L166.15-1.10L166.15-1.10Q165.38-1.85 164.94-3.04L164.94-3.04L164.94-3.04Q164.50-4.22 164.50-5.95L164.50-5.95L164.50-5.95Q164.50-7.51 164.93-8.70L164.93-8.70L164.93-8.70Q165.36-9.89 166.12-10.69L166.12-10.69L166.12-10.69Q166.87-11.50 167.89-11.90L167.89-11.90L167.89-11.90Q168.91-12.31 170.11-12.31L170.11-12.31L170.11-12.31Q171.29-12.31 172.15-11.86L172.15-11.86L172.15-11.86Q173.02-11.40 173.58-10.62L173.58-10.62L173.58-10.62Q174.14-9.84 174.42-8.80L174.42-8.80L174.42-8.80Q174.70-7.75 174.70-6.60L174.70-6.60L174.34-5.54L166.58-5.54L166.58-5.54Q166.58-4.80 166.78-4.06L166.78-4.06L166.78-4.06Q166.97-3.31 167.44-2.71L167.44-2.71L167.44-2.71Q167.90-2.11 168.66-1.74L168.66-1.74L168.66-1.74Q169.42-1.37 170.54-1.37L170.54-1.37L170.54-1.37Q171.26-1.37 171.86-1.45L171.86-1.45L171.86-1.45Q172.46-1.54 172.91-1.64L172.91-1.64L172.91-1.64Q173.35-1.75 173.74-1.90L173.74-1.90zM166.66-7.08L172.70-7.08L172.70-7.08Q172.70-7.25 172.63-7.82L172.63-7.82L172.63-7.82Q172.56-8.40 172.30-9.02L172.30-9.02L172.30-9.02Q172.03-9.65 171.48-10.14L171.48-10.14L171.48-10.14Q170.93-10.63 170.02-10.63L170.02-10.63L170.02-10.63Q169.01-10.63 168.36-10.21L168.36-10.21L168.36-10.21Q167.71-9.79 167.33-9.22L167.33-9.22L167.33-9.22Q166.94-8.64 166.80-8.04L166.80-8.04L166.80-8.04Q166.66-7.44 166.66-7.08L166.66-7.08" fill="#ffffff" stroke="none" stroke-width="none" transform="translate(-88.58333587646484,6.974987888336182)" style="fill: rgb(255, 255, 255);"></path></g><g class="path" style="transform: matrix(1, 0, 0, 1, 0, 14.925); opacity: 0.05; transform-origin: 89.6867px -2.12001px 0px; animation: 0.490196s linear 0.303309s 1 normal forwards running float-btt-in-d306c29f-18cb-426a-8c0e-2679ce6f9c63;"><path d="M177.31 0L177.31-17.98L179.23-18.19L179.23 0L177.31 0" fill="#ffffff" stroke="none" stroke-width="none" transform="translate(-88.58333587646484,6.974987888336182)" style="fill: rgb(255, 255, 255);"></path></g></g>
</g>
</g>
<style id="float-btt-in-d306c29f-18cb-426a-8c0e-2679ce6f9c63" data-anikit="">@keyframes float-btt-in-d306c29f-18cb-426a-8c0e-2679ce6f9c63
{
  0% {
    animation-timing-function: cubic-bezier(0.2242,0.7499,0.3142,0.8148);
    transform: translate(0px,14.925px) rotate(0deg) scale(1,1) skewX(0deg) skewY(0deg);
    opacity: 0.05;
  }
  100% {
    transform: translate(0px,0px) rotate(0deg) scale(1,1) skewX(0deg) skewY(0deg);
    opacity: 1;
  }
}</style></svg>