<?xml version="1.0" encoding="utf-8"?>
<svg xmlns="http://www.w3.org/2000/svg" style="margin: auto; background: rgba(0, 0, 0, 0) none repeat scroll 0% 0%; display: block; shape-rendering: auto;" width="73" height="28" preserveAspectRatio="xMidYMid">
<style type="text/css">
  text {
    text-anchor: middle; font-size: 27px; opacity: 0;
  }
</style>
<g style="transform-origin:36.5px 14px;transform:scale(1)">
<g transform="translate(36.5,14)">
  <g transform="translate(0,0)"><g class="path" style="transform: matrix(1, 0, 0, 1, 0, 14.925); opacity: 0.05; transform-origin: -25.3067px -2.77508px 0px; animation: 1s linear 0s 1 normal forwards running float-btt-in-c244da0a-5b19-4fb9-b4d8-942489fc9f75;"><path d="M2.38 0L2.38-18.41L4.64-18.41L4.64 0L2.38 0" fill="#ffffff" stroke="none" stroke-width="none" transform="translate(-28.816665649414062,6.429916763305664)" style="fill: rgb(255, 255, 255);"></path></g><g class="path" style="transform: matrix(1, 0, 0, 1, 0, 14.925); opacity: 0.05; transform-origin: -14.4217px -0.495083px 0px; animation: 1s linear 0.0825s 1 normal forwards running float-btt-in-c244da0a-5b19-4fb9-b4d8-942489fc9f75;"><path d="M8.99 0L8.99-10.88L8.99-10.88Q9.02-11.45 8.86-13.34L8.86-13.34L10.85-13.61L11.15-11.88L11.15-11.88Q11.96-12.42 12.76-12.82L12.76-12.82L12.76-12.82Q13.55-13.23 14.39-13.54L14.39-13.54L14.39-13.54Q15.23-13.85 16.01-13.85L16.01-13.85L16.01-13.85Q17.12-13.85 17.86-13.59L17.86-13.59L17.86-13.59Q18.60-13.34 19.06-12.74L19.06-12.74L19.06-12.74Q19.52-12.15 19.72-11.18L19.72-11.18L19.72-11.18Q19.93-10.21 19.93-8.75L19.93-8.75L19.93 0L17.77 0L17.77-8.51L17.77-8.51Q17.77-9.31 17.74-9.95L17.74-9.95L17.74-9.95Q17.71-10.58 17.51-11.03L17.51-11.03L17.51-11.03Q17.31-11.47 16.89-11.72L16.89-11.72L16.89-11.72Q16.47-11.96 15.71-11.96L15.71-11.96L15.71-11.96Q15.01-11.96 14.23-11.65L14.23-11.65L14.23-11.65Q13.45-11.34 12.69-10.94L12.69-10.94L12.69-10.94Q11.93-10.53 11.15-9.99L11.15-9.99L11.15 0L8.99 0" fill="#ffffff" stroke="none" stroke-width="none" transform="translate(-28.816665649414062,6.429916763305664)" style="fill: rgb(255, 255, 255);"></path></g><g class="path" style="transform: matrix(1, 0, 0, 1, 0, 14.925); opacity: 0.05; transform-origin: -4.00667px -0.495083px 0px; animation: 1s linear 0.165s 1 normal forwards running float-btt-in-c244da0a-5b19-4fb9-b4d8-942489fc9f75;"><path d="M23.73 0L23.73-13.61L25.89-13.85L25.89 0L23.73 0" fill="#ffffff" stroke="none" stroke-width="none" transform="translate(-28.816665649414062,6.429916763305664)" style="fill: rgb(255, 255, 255);"></path></g><g class="path" style="transform: matrix(1, 0, 0, 1, 0, 14.925); opacity: 0.05; transform-origin: -2.92167px -12.0951px 0px; animation: 1s linear 0.2475s 1 normal forwards running float-btt-in-c244da0a-5b19-4fb9-b4d8-942489fc9f75;"><path d="M22.87-17.44L27.51-20.82L28.92-19.17L23.79-16.23L22.87-17.44" fill="#ffffff" stroke="none" stroke-width="none" transform="translate(-28.816665649414062,6.429916763305664)" style="fill: rgb(254, 254, 254);"></path></g><g class="path" style="transform: matrix(1, 0, 0, 1, 0, 14.925); opacity: 0.05; transform-origin: 5.16333px -0.320083px 0px; animation: 1s linear 0.33s 1 normal forwards running float-btt-in-c244da0a-5b19-4fb9-b4d8-942489fc9f75;"><path d="M38.64-13.42L38.21-11.61L38.21-11.61Q37.75-11.72 36.94-11.84L36.94-11.84L36.94-11.84Q36.13-11.96 35.29-11.96L35.29-11.96L35.29-11.96Q34.07-11.96 33.30-11.47L33.30-11.47L33.30-11.47Q32.54-10.99 32.10-10.22L32.10-10.22L32.10-10.22Q31.67-9.45 31.51-8.52L31.51-8.52L31.51-8.52Q31.35-7.59 31.35-6.70L31.35-6.70L31.35-6.70Q31.35-5.32 31.70-4.33L31.70-4.33L31.70-4.33Q32.05-3.35 32.63-2.73L32.63-2.73L32.63-2.73Q33.21-2.11 33.97-1.82L33.97-1.82L33.97-1.82Q34.72-1.54 35.56-1.54L35.56-1.54L35.56-1.54Q36.13-1.54 36.65-1.61L36.65-1.61L36.65-1.61Q37.18-1.67 37.62-1.77L37.62-1.77L37.62-1.77Q38.07-1.86 38.48-2.00L38.48-2.00L38.91-0.19L38.91-0.19Q38.34-0.03 37.85 0.08L37.85 0.08L37.85 0.08Q37.37 0.19 36.71 0.27L36.71 0.27L36.71 0.27Q36.05 0.35 35.29 0.35L35.29 0.35L35.29 0.35Q33.80 0.35 32.64-0.03L32.64-0.03L32.64-0.03Q31.48-0.40 30.69-1.24L30.69-1.24L30.69-1.24Q29.89-2.08 29.47-3.43L29.47-3.43L29.47-3.43Q29.05-4.78 29.05-6.72L29.05-6.72L29.05-6.72Q29.05-8.61 29.58-9.98L29.58-9.98L29.58-9.98Q30.11-11.34 30.97-12.19L30.97-12.19L30.97-12.19Q31.83-13.04 32.95-13.45L32.95-13.45L32.95-13.45Q34.07-13.85 35.29-13.85L35.29-13.85L35.29-13.85Q35.94-13.85 36.54-13.78L36.54-13.78L36.54-13.78Q37.15-13.72 37.61-13.63L37.61-13.63L37.61-13.63Q38.15-13.53 38.64-13.42L38.64-13.42" fill="#ffffff" stroke="none" stroke-width="none" transform="translate(-28.816665649414062,6.429916763305664)" style="fill: rgb(255, 255, 255);"></path></g><g class="path" style="transform: matrix(1, 0, 0, 1, 0, 14.925); opacity: 0.05; transform-origin: 13.8433px -0.495083px 0px; animation: 1s linear 0.4125s 1 normal forwards running float-btt-in-c244da0a-5b19-4fb9-b4d8-942489fc9f75;"><path d="M41.58 0L41.58-13.61L43.74-13.85L43.74 0L41.58 0" fill="#ffffff" stroke="none" stroke-width="none" transform="translate(-28.816665649414062,6.429916763305664)" style="fill: rgb(255, 255, 255);"></path></g><g class="path" style="transform: matrix(1, 0, 0, 1, 0, 14.925); opacity: 0.05; transform-origin: 13.9133px -11.0401px 0px; animation: 1s linear 0.495s 1 normal forwards running float-btt-in-c244da0a-5b19-4fb9-b4d8-942489fc9f75;"><path d="M41.23-17.47L41.23-17.47L41.23-17.47Q41.23-18.09 41.65-18.51L41.65-18.51L41.65-18.51Q42.07-18.93 42.69-18.93L42.69-18.93L42.69-18.93Q43.34-18.93 43.78-18.51L43.78-18.51L43.78-18.51Q44.23-18.09 44.23-17.47L44.23-17.47L44.23-17.47Q44.23-16.85 43.78-16.43L43.78-16.43L43.78-16.43Q43.34-16.01 42.69-16.01L42.69-16.01L42.69-16.01Q42.07-16.01 41.65-16.43L41.65-16.43L41.65-16.43Q41.23-16.85 41.23-17.47" fill="#ffffff" stroke="none" stroke-width="none" transform="translate(-28.816665649414062,6.429916763305664)" style="fill: rgb(255, 255, 255);"></path></g><g class="path" style="transform: matrix(1, 0, 0, 1, 0, 14.925); opacity: 0.05; transform-origin: 24.6133px -0.320083px 0px; animation: 1s linear 0.5775s 1 normal forwards running float-btt-in-c244da0a-5b19-4fb9-b4d8-942489fc9f75;"><path d="M49.17-6.72L49.17-6.72L49.17-6.72Q49.17-4.10 50.34-2.82L50.34-2.82L50.34-2.82Q51.52-1.54 53.51-1.54L53.51-1.54L53.51-1.54Q55.49-1.54 56.59-2.81L56.59-2.81L56.59-2.81Q57.70-4.08 57.70-6.62L57.70-6.62L57.70-6.62Q57.70-9.31 56.52-10.64L56.52-10.64L56.52-10.64Q55.35-11.96 53.33-11.96L53.33-11.96L53.33-11.96Q51.30-11.96 50.23-10.65L50.23-10.65L50.23-10.65Q49.17-9.34 49.17-6.72zM46.87-6.75L46.87-6.75L46.87-6.75Q46.87-8.80 47.52-10.17L47.52-10.17L47.52-10.17Q48.17-11.53 49.17-12.35L49.17-12.35L49.17-12.35Q50.17-13.18 51.31-13.51L51.31-13.51L51.31-13.51Q52.46-13.85 53.49-13.85L53.49-13.85L53.49-13.85Q54.46-13.85 55.61-13.54L55.61-13.54L55.61-13.54Q56.75-13.23 57.73-12.43L57.73-12.43L57.73-12.43Q58.70-11.64 59.35-10.30L59.35-10.30L59.35-10.30Q59.99-8.96 59.99-6.91L59.99-6.91L59.99-6.91Q59.99-4.78 59.33-3.38L59.33-3.38L59.33-3.38Q58.67-1.97 57.67-1.15L57.67-1.15L57.67-1.15Q56.67-0.32 55.51 0.01L55.51 0.01L55.51 0.01Q54.35 0.35 53.35 0.35L53.35 0.35L53.35 0.35Q52.33 0.35 51.19 0.03L51.19 0.03L51.19 0.03Q50.06-0.30 49.10-1.09L49.10-1.09L49.10-1.09Q48.14-1.89 47.51-3.27L47.51-3.27L47.51-3.27Q46.87-4.64 46.87-6.75" fill="#ffffff" stroke="none" stroke-width="none" transform="translate(-28.816665649414062,6.429916763305664)" style="fill: rgb(254, 254, 254);"></path></g></g>
</g>
</g>
<style id="float-btt-in-c244da0a-5b19-4fb9-b4d8-942489fc9f75" data-anikit="">@keyframes float-btt-in-c244da0a-5b19-4fb9-b4d8-942489fc9f75
{
  0% {
    animation-timing-function: cubic-bezier(0.2242,0.7499,0.3142,0.8148);
    transform: translate(0px,14.925px) rotate(0deg) scale(1,1) skewX(0deg) skewY(0deg);
    opacity: 0.05;
  }
  100% {
    transform: translate(0px,0px) rotate(0deg) scale(1,1) skewX(0deg) skewY(0deg);
    opacity: 1;
  }
}</style></svg>