<?xml version="1.0" encoding="utf-8"?>
<svg xmlns="http://www.w3.org/2000/svg" style="margin: auto; background: rgba(0, 0, 0, 0) none repeat scroll 0% 0%; display: block; shape-rendering: auto;" width="59" height="22" preserveAspectRatio="xMidYMid">
<style type="text/css">
  text {
    text-anchor: middle; font-size: 22px; opacity: 0;
  }
</style>
<g style="transform-origin: 29.5px 11px 0px; transform: scale(0.758621);">
<g transform="translate(29.5,11)">
  <g transform="translate(0,0)"><g class="path" style="transform: matrix(1, 0, 0, 1, 0, 14.925); opacity: 0.05; transform-origin: -29.4683px -3.34563px 0px; animation: 1s linear 0s 1 normal forwards running float-btt-in-d306c29f-18cb-426a-8c0e-2679ce6f9c63;"><path d="M5.37 0L2.61 0L2.61-20.30L5.37-20.30L5.37 0" fill="#ffffff" stroke="none" stroke-width="none" transform="translate(-33.458343505859375,6.804373550415039)" style="fill: rgb(255, 255, 255);"></path></g><g class="path" style="transform: matrix(1, 0, 0, 1, 0, 14.925); opacity: 0.05; transform-origin: -16.8233px -0.910626px 0px; animation: 1s linear 0.0825s 1 normal forwards running float-btt-in-d306c29f-18cb-426a-8c0e-2679ce6f9c63;"><path d="M12.82-15.08L12.82-12.56L12.82-12.56Q13.63-13.78 14.89-14.60L14.89-14.60L14.89-14.60Q16.15-15.43 17.89-15.43L17.89-15.43L17.89-15.43Q20.45-15.43 21.71-13.89L21.71-13.89L21.71-13.89Q22.97-12.35 22.97-9.83L22.97-9.83L22.97 0L20.36 0L20.36-9.54L20.36-9.54Q20.36-11.19 19.60-12.17L19.60-12.17L19.60-12.17Q18.85-13.14 17.46-13.14L17.46-13.14L17.46-13.14Q16.79-13.14 16.15-12.89L16.15-12.89L16.15-12.89Q15.52-12.64 14.92-12.21L14.92-12.21L14.92-12.21Q14.33-11.77 13.82-11.19L13.82-11.19L13.82-11.19Q13.31-10.61 12.91-9.98L12.91-9.98L12.91 0L10.30 0L10.30-15.08L12.82-15.08" fill="#ffffff" stroke="none" stroke-width="none" transform="translate(-33.458343505859375,6.804373550415039)" style="fill: rgb(255, 255, 255);"></path></g><g class="path" style="transform: matrix(1, 0, 0, 1, 0, 14.925); opacity: 0.05; transform-origin: -4.69334px -0.735626px 0px; animation: 1s linear 0.165s 1 normal forwards running float-btt-in-d306c29f-18cb-426a-8c0e-2679ce6f9c63;"><path d="M30.07-15.08L30.07 0L27.46 0L27.46-15.08L30.07-15.08" fill="#ffffff" stroke="none" stroke-width="none" transform="translate(-33.458343505859375,6.804373550415039)" style="fill: rgb(255, 255, 255);"></path></g><g class="path" style="transform: matrix(1, 0, 0, 1, 0, 14.925); opacity: 0.05; transform-origin: -4.61834px -12.5706px 0px; animation: 1s linear 0.2475s 1 normal forwards running float-btt-in-d306c29f-18cb-426a-8c0e-2679ce6f9c63;"><path d="M26.39-16.68L25.49-18.44L30.97-22.07L32.19-19.63L26.39-16.68" fill="#ffffff" stroke="none" stroke-width="none" transform="translate(-33.458343505859375,6.804373550415039)" style="fill: rgb(255, 255, 255);"></path></g><g class="path" style="transform: matrix(1, 0, 0, 1, 0, 14.925); opacity: 0.05; transform-origin: 6.07166px -0.735626px 0px; animation: 1s linear 0.33s 1 normal forwards running float-btt-in-d306c29f-18cb-426a-8c0e-2679ce6f9c63;"><path d="M45.12-14.53L44.34-12.33L44.34-12.33Q43.50-12.73 42.77-12.92L42.77-12.92L42.77-12.92Q42.05-13.11 41.15-13.11L41.15-13.11L41.15-13.11Q40.14-13.11 39.25-12.73L39.25-12.73L39.25-12.73Q38.37-12.35 37.73-11.64L37.73-11.64L37.73-11.64Q37.09-10.93 36.73-9.92L36.73-9.92L36.73-9.92Q36.37-8.90 36.37-7.60L36.37-7.60L36.37-7.60Q36.37-6.41 36.70-5.39L36.70-5.39L36.70-5.39Q37.03-4.38 37.64-3.61L37.64-3.61L37.64-3.61Q38.25-2.84 39.09-2.41L39.09-2.41L39.09-2.41Q39.93-1.97 40.98-1.97L40.98-1.97L40.98-1.97Q42.08-1.97 42.86-2.20L42.86-2.20L42.86-2.20Q43.65-2.44 44.54-2.93L44.54-2.93L45.36-0.73L45.36-0.73Q44.43-0.23 43.33 0.06L43.33 0.06L43.33 0.06Q42.22 0.35 40.80 0.35L40.80 0.35L40.80 0.35Q39.18 0.35 37.87-0.23L37.87-0.23L37.87-0.23Q36.57-0.81 35.64-1.86L35.64-1.86L35.64-1.86Q34.71-2.90 34.21-4.35L34.21-4.35L34.21-4.35Q33.70-5.80 33.70-7.54L33.70-7.54L33.70-7.54Q33.70-9.16 34.21-10.60L34.21-10.60L34.21-10.60Q34.71-12.04 35.67-13.11L35.67-13.11L35.67-13.11Q36.63-14.18 37.98-14.80L37.98-14.80L37.98-14.80Q39.32-15.43 41.01-15.43L41.01-15.43L41.01-15.43Q42.31-15.43 43.27-15.20L43.27-15.20L43.27-15.20Q44.23-14.96 45.12-14.53L45.12-14.53" fill="#ffffff" stroke="none" stroke-width="none" transform="translate(-33.458343505859375,6.804373550415039)" style="fill: rgb(255, 255, 255);"></path></g><g class="path" style="transform: matrix(1, 0, 0, 1, 0, 14.925); opacity: 0.05; transform-origin: 16.2467px -0.735626px 0px; animation: 1s linear 0.4125s 1 normal forwards running float-btt-in-d306c29f-18cb-426a-8c0e-2679ce6f9c63;"><path d="M51.01-15.08L51.01 0L48.40 0L48.40-15.08L51.01-15.08" fill="#ffffff" stroke="none" stroke-width="none" transform="translate(-33.458343505859375,6.804373550415039)" style="fill: rgb(255, 255, 255);"></path></g><g class="path" style="transform: matrix(1, 0, 0, 1, 0, 14.925); opacity: 0.05; transform-origin: 16.2467px -12.6856px 0px; animation: 1s linear 0.495s 1 normal forwards running float-btt-in-d306c29f-18cb-426a-8c0e-2679ce6f9c63;"><path d="M49.71-17.66L49.71-17.66L49.71-17.66Q48.95-17.66 48.42-18.20L48.42-18.20L48.42-18.20Q47.88-18.73 47.88-19.49L47.88-19.49L47.88-19.49Q47.88-20.33 48.37-20.82L48.37-20.82L48.37-20.82Q48.87-21.32 49.71-21.32L49.71-21.32L49.71-21.32Q50.46-21.32 51.00-20.78L51.00-20.78L51.00-20.78Q51.53-20.24 51.53-19.49L51.53-19.49L51.53-19.49Q51.53-18.65 51.04-18.15L51.04-18.15L51.04-18.15Q50.55-17.66 49.71-17.66" fill="#ffffff" stroke="none" stroke-width="none" transform="translate(-33.458343505859375,6.804373550415039)" style="fill: rgb(255, 255, 255);"></path></g><g class="path" style="transform: matrix(1, 0, 0, 1, 0, 14.925); opacity: 0.05; transform-origin: 28.5417px -0.735626px 0px; animation: 1s linear 0.5775s 1 normal forwards running float-btt-in-d306c29f-18cb-426a-8c0e-2679ce6f9c63;"><path d="M66.84-7.54L66.84-7.54L66.84-7.54Q66.84-8.67 66.48-9.69L66.48-9.69L66.48-9.69Q66.12-10.70 65.47-11.46L65.47-11.46L65.47-11.46Q64.81-12.21 63.93-12.66L63.93-12.66L63.93-12.66Q63.05-13.11 62.00-13.11L62.00-13.11L62.00-13.11Q59.71-13.11 58.44-11.60L58.44-11.60L58.44-11.60Q57.16-10.09 57.16-7.60L57.16-7.60L57.16-7.60Q57.16-6.47 57.52-5.44L57.52-5.44L57.52-5.44Q57.88-4.41 58.54-3.64L58.54-3.64L58.54-3.64Q59.19-2.87 60.07-2.42L60.07-2.42L60.07-2.42Q60.96-1.97 62.00-1.97L62.00-1.97L62.00-1.97Q63.13-1.97 64.03-2.38L64.03-2.38L64.03-2.38Q64.93-2.78 65.55-3.52L65.55-3.52L65.55-3.52Q66.18-4.26 66.51-5.28L66.51-5.28L66.51-5.28Q66.84-6.29 66.84-7.54zM54.49-7.54L54.49-7.54L54.49-7.54Q54.49-9.37 55.07-10.83L55.07-10.83L55.07-10.83Q55.65-12.30 56.65-13.31L56.65-13.31L56.65-13.31Q57.65-14.33 59.03-14.88L59.03-14.88L59.03-14.88Q60.41-15.43 62.00-15.43L62.00-15.43L62.00-15.43Q63.57-15.43 64.95-14.88L64.95-14.88L64.95-14.88Q66.32-14.33 67.34-13.31L67.34-13.31L67.34-13.31Q68.35-12.30 68.93-10.85L68.93-10.85L68.93-10.85Q69.51-9.40 69.51-7.60L69.51-7.60L69.51-7.60Q69.51-5.80 68.95-4.34L68.95-4.34L68.95-4.34Q68.38-2.87 67.37-1.83L67.37-1.83L67.37-1.83Q66.35-0.78 64.97-0.22L64.97-0.22L64.97-0.22Q63.60 0.35 62.00 0.35L62.00 0.35L62.00 0.35Q60.38 0.35 59.00-0.23L59.00-0.23L59.00-0.23Q57.62-0.81 56.62-1.86L56.62-1.86L56.62-1.86Q55.62-2.90 55.06-4.35L55.06-4.35L55.06-4.35Q54.49-5.80 54.49-7.54" fill="#ffffff" stroke="none" stroke-width="none" transform="translate(-33.458343505859375,6.804373550415039)" style="fill: rgb(255, 255, 255);"></path></g></g>
</g>
</g>
<style id="float-btt-in-d306c29f-18cb-426a-8c0e-2679ce6f9c63" data-anikit="">@keyframes float-btt-in-d306c29f-18cb-426a-8c0e-2679ce6f9c63
{
  0% {
    animation-timing-function: cubic-bezier(0.2242,0.7499,0.3142,0.8148);
    transform: translate(0px,14.925px) rotate(0deg) scale(1,1) skewX(0deg) skewY(0deg);
    opacity: 0.05;
  }
  100% {
    transform: translate(0px,0px) rotate(0deg) scale(1,1) skewX(0deg) skewY(0deg);
    opacity: 1;
  }
}</style></svg>