<?xml version="1.0" encoding="utf-8"?>
<svg xmlns="http://www.w3.org/2000/svg" style="margin: auto; background: rgba(0, 0, 0, 0) none repeat scroll 0% 0%; display: block; shape-rendering: auto;" width="87" height="40" preserveAspectRatio="xMidYMid">
<style type="text/css">
  text {
    text-anchor: middle; font-size: 37px; opacity: 0;
  }
</style>
<g style="transform-origin:43.5px 20px;transform:scale(1)">
<g transform="translate(43.5,20)">
  <g transform="translate(0,0)"><g class="path" style="transform: matrix(1, 0, 0, 1, 0, 14.925); opacity: 0.05; transform-origin: -32.7567px -4.38574px 0px; animation: 1s linear 0s 1 normal forwards running float-btt-in-c244da0a-5b19-4fb9-b4d8-942489fc9f75;"><path d="M2.96-24.79L8.21-25.71L7.70-9.62L8.14 0L2.96 0L3.40-8.99L2.96-24.79" fill="#ffffff" stroke="none" stroke-width="none" transform="translate(-38.341651916503906,8.469258842468262)" style="fill: rgb(255, 255, 255);"></path></g><g class="path" style="transform: matrix(1, 0, 0, 1, 0, 14.925); opacity: 0.05; transform-origin: -17.5867px -0.855741px 0px; animation: 1s linear 0.0825s 1 normal forwards running float-btt-in-c244da0a-5b19-4fb9-b4d8-942489fc9f75;"><path d="M24.05-9.36L24.05-9.36Q24.05-11.91 23.61-12.76L23.61-12.76L23.61-12.76Q23.16-13.62 21.53-13.62L21.53-13.62L21.53-13.62Q19.91-13.62 17.83-12.32L17.83-12.32L17.83-9.62L18.24-0.92L13.28 0L13.73-8.99L13.73-8.99Q13.58-13.95 12.91-17.87L12.91-17.87L17.39-18.83L17.39-18.83Q17.65-16.69 17.76-14.65L17.76-14.65L17.76-14.65Q18.31-15.39 19.02-16.11L19.02-16.11L19.02-16.11Q19.72-16.84 21.24-17.74L21.24-17.74L21.24-17.74Q22.75-18.65 24.44-18.65L24.44-18.65L24.44-18.65Q26.12-18.65 27.27-17.33L27.27-17.33L27.27-17.33Q28.42-16.02 28.42-13.76L28.42-13.76L28.19-9.62L28.60-0.74L23.61 0.18L24.05-9.36" fill="#ffffff" stroke="none" stroke-width="none" transform="translate(-38.341651916503906,8.469258842468262)" style="fill: rgb(255, 255, 255);"></path></g><g class="path" style="transform: matrix(1, 0, 0, 1, 0, 14.925); opacity: 0.05; transform-origin: -3.21165px -0.945741px 0px; animation: 1s linear 0.165s 1 normal forwards running float-btt-in-c244da0a-5b19-4fb9-b4d8-942489fc9f75;"><path d="M32.67-17.91L37.63-18.83L37.18-9.62L37.59-0.92L32.63 0L33.08-8.99L32.67-17.91" fill="#ffffff" stroke="none" stroke-width="none" transform="translate(-38.341651916503906,8.469258842468262)" style="fill: rgb(255, 255, 255);"></path></g><g class="path" style="transform: matrix(1, 0, 0, 1, 0, 14.925); opacity: 0.05; transform-origin: -3.19165px -15.5757px 0px; animation: 1s linear 0.2475s 1 normal forwards running float-btt-in-c244da0a-5b19-4fb9-b4d8-942489fc9f75;"><path d="M39.18-26.82L39.18-26.82L39.59-23.05L39.59-23.05Q34.74-21.94 30.89-21.27L30.89-21.27L30.71-23.94L30.71-23.94Q33.85-24.86 39.18-26.82" fill="#ffffff" stroke="none" stroke-width="none" transform="translate(-38.341651916503906,8.469258842468262)" style="fill: rgb(254, 254, 254);"></path></g><g class="path" style="transform: matrix(1, 0, 0, 1, 0, 14.925); opacity: 0.05; transform-origin: 8.72335px -0.85074px 0px; animation: 1s linear 0.33s 1 normal forwards running float-btt-in-c244da0a-5b19-4fb9-b4d8-942489fc9f75;"><path d="M48.06-14.24L48.06-14.24L48.06-14.24Q46.43-14.24 45.55-13.08L45.55-13.08L45.55-13.08Q44.66-11.91 44.66-9.51L44.66-9.51L44.66-9.51Q44.66-7.10 45.57-5.64L45.57-5.64L45.57-5.64Q46.47-4.18 48.21-4.18L48.21-4.18L48.21-4.18Q49.10-4.18 49.95-4.74L49.95-4.74L49.95-4.74Q50.80-5.29 51.24-5.85L51.24-5.85L51.65-6.44L53.50-4.51L53.50-4.51Q53.39-4.33 53.22-4.00L53.22-4.00L53.22-4.00Q53.06-3.66 52.41-2.81L52.41-2.81L52.41-2.81Q51.76-1.96 51.04-1.31L51.04-1.31L51.04-1.31Q50.32-0.67 49.17-0.13L49.17-0.13L49.17-0.13Q48.03 0.41 46.77 0.41L46.77 0.41L46.77 0.41Q43.99 0.41 42.25-1.85L42.25-1.85L42.25-1.85Q40.52-4.11 40.52-7.73L40.52-7.73L40.52-7.73Q40.52-12.25 43.14-15.65L43.14-15.65L43.14-15.65Q45.77-19.05 49.28-19.05L49.28-19.05L49.28-19.05Q50.36-19.05 51.43-18.74L51.43-18.74L51.43-18.74Q52.50-18.43 53.61-17.76L53.61-17.76L51.02-13.21L51.02-13.21Q49.69-14.24 48.06-14.24" fill="#ffffff" stroke="none" stroke-width="none" transform="translate(-38.341651916503906,8.469258842468262)" style="fill: rgb(255, 255, 255);"></path></g><g class="path" style="transform: matrix(1, 0, 0, 1, 0, 14.925); opacity: 0.05; transform-origin: 20.0633px -0.945741px 0px; animation: 1s linear 0.4125s 1 normal forwards running float-btt-in-c244da0a-5b19-4fb9-b4d8-942489fc9f75;"><path d="M55.94-17.91L60.90-18.83L60.46-9.62L60.86-0.92L55.91 0L56.35-8.99L55.94-17.91" fill="#ffffff" stroke="none" stroke-width="none" transform="translate(-38.341651916503906,8.469258842468262)" style="fill: rgb(255, 255, 255);"></path></g><g class="path" style="transform: matrix(1, 0, 0, 1, 0, 14.925); opacity: 0.05; transform-origin: 20.2283px -15.9507px 0px; animation: 1s linear 0.495s 1 normal forwards running float-btt-in-c244da0a-5b19-4fb9-b4d8-942489fc9f75;"><path d="M55.68-24.25L55.68-24.25L55.68-24.25Q55.68-25.49 56.65-26.47L56.65-26.47L56.65-26.47Q57.61-27.45 58.87-27.45L58.87-27.45L58.87-27.45Q60.12-27.45 60.79-26.77L60.79-26.77L60.79-26.77Q61.46-26.08 61.46-24.72L61.46-24.72L61.46-24.72Q61.46-23.35 60.51-22.37L60.51-22.37L60.51-22.37Q59.57-21.39 58.33-21.39L58.33-21.39L58.33-21.39Q57.09-21.39 56.39-22.20L56.39-22.20L56.39-22.20Q55.68-23.01 55.68-24.25" fill="#ffffff" stroke="none" stroke-width="none" transform="translate(-38.341651916503906,8.469258842468262)" style="fill: rgb(255, 255, 255);"></path></g><g class="path" style="transform: matrix(1, 0, 0, 1, 0, 14.925); opacity: 0.05; transform-origin: 33.3984px -0.85074px 0px; animation: 1s linear 0.5775s 1 normal forwards running float-btt-in-c244da0a-5b19-4fb9-b4d8-942489fc9f75;"><path d="M63.86-7.73L63.86-7.73Q63.86-12.47 66.41-15.76L66.41-15.76L66.41-15.76Q68.97-19.05 72.39-19.05L72.39-19.05L72.39-19.05Q75.81-19.05 77.72-16.84L77.72-16.84L77.72-16.84Q79.62-14.61 79.62-10.95L79.62-10.95L79.62-10.95Q79.62-6.07 77.16-2.83L77.16-2.83L77.16-2.83Q74.70 0.41 70.97 0.41L70.97 0.41L70.97 0.41Q67.89 0.41 65.88-1.91L65.88-1.91L65.88-1.91Q63.86-4.22 63.86-7.73L63.86-7.73zM75.48-9.03L75.48-9.03L75.48-9.03Q75.48-14.39 71.82-14.39L71.82-14.39L71.82-14.39Q68.01-14.39 68.01-9.36L68.01-9.36L68.01-9.36Q68.01-6.73 69.08-5.25L69.08-5.25L69.08-5.25Q70.15-3.77 71.91-3.77L71.91-3.77L71.91-3.77Q73.67-3.77 74.57-5.12L74.57-5.12L74.57-5.12Q75.48-6.47 75.48-9.03" fill="#ffffff" stroke="none" stroke-width="none" transform="translate(-38.341651916503906,8.469258842468262)" style="fill: rgb(254, 254, 254);"></path></g></g>
</g>
</g>
<style id="float-btt-in-c244da0a-5b19-4fb9-b4d8-942489fc9f75" data-anikit="">@keyframes float-btt-in-c244da0a-5b19-4fb9-b4d8-942489fc9f75
{
  0% {
    animation-timing-function: cubic-bezier(0.2242,0.7499,0.3142,0.8148);
    transform: translate(0px,14.925px) rotate(0deg) scale(1,1) skewX(0deg) skewY(0deg);
    opacity: 0.05;
  }
  100% {
    transform: translate(0px,0px) rotate(0deg) scale(1,1) skewX(0deg) skewY(0deg);
    opacity: 1;
  }
}</style></svg>